<svg version="1.1" xmlns="http://www.w3.org/2000/svg" viewBox="0 0 2155.532653444897 1041.4215403735298" width="2155.532653444897" height="1041.4215403735298">
  <!-- svg-source:excalidraw -->
  
  <defs>
    <style class="style-fonts">
      @font-face {
        font-family: "Virgil";
        src: url("https://excalidraw.com/Virgil.woff2");
      }
      @font-face {
        font-family: "Cascadia";
        src: url("https://excalidraw.com/Cascadia.woff2");
      }
      @font-face {
        font-family: "Assistant";
        src: url("https://excalidraw.com/Assistant-Regular.woff2");
      }
    </style>
    
  </defs>
  <g stroke-linecap="round"><g transform="translate(747.4827514954145 594.1336032522304) rotate(0 277.5076438342587 -2.1474566387691993)"><path d="M2.49 -2.56 C94.82 -3.17, 463.62 -4.28, 555.36 -4.72 M0.4 2.22 C92.25 2.15, 460.27 -0.52, 553.32 -1.33" stroke="#0b7285" stroke-width="4" fill="none"></path></g><g transform="translate(747.4827514954145 594.1336032522304) rotate(0 277.5076438342587 -2.1474566387691993)"><path d="M24.12 -10.95 C17.39 -9.42, 8.79 -5.43, 4.12 -2.92 M25.61 -11.44 C21.21 -8.5, 16.06 -7.78, 2.27 -2.07" stroke="#0b7285" stroke-width="4" fill="none"></path></g><g transform="translate(747.4827514954145 594.1336032522304) rotate(0 277.5076438342587 -2.1474566387691993)"><path d="M24.19 6.15 C17.49 1.69, 8.88 -0.32, 4.12 -2.92 M25.68 5.66 C21.26 4.92, 16.1 1.97, 2.27 -2.07" stroke="#0b7285" stroke-width="4" fill="none"></path></g></g><mask></mask><g stroke-linecap="round"><g stroke-opacity="0.8" fill-opacity="0.8" transform="translate(87.7619300229785 698.612556529135) rotate(0 408.97117821082657 -0.37654554335449575)"><path d="M0.87 -2.4 C137.01 -2.63, 683.15 -2.05, 819.5 -1.34 M-2.11 2.47 C133.57 2.67, 681.47 2.75, 818.11 1.98" stroke="#364fc7" stroke-width="4" fill="none"></path></g></g><mask></mask><g stroke-linecap="round"><g stroke-opacity="0.8" fill-opacity="0.8" transform="translate(91.96775173052129 697.5181769654937) rotate(0 -11.881512450676155 -131.659353583761)"><path d="M1.56 -0.58 C-6.19 -1.82, -35.04 -4.83, -45.63 -9.79 C-56.22 -14.76, -57.07 -20.71, -61.99 -30.37 C-66.91 -40.03, -73.11 -47.86, -75.16 -67.74 C-77.21 -87.62, -77.19 -129.59, -74.29 -149.67 C-71.4 -169.74, -66.81 -175.12, -57.77 -188.2 C-48.73 -201.27, -34.2 -215.54, -20.07 -228.12 C-5.93 -240.7, 14.27 -257.98, 27.03 -263.69 C39.79 -269.4, 52.32 -262.3, 56.52 -262.4 M-1.04 -3.37 C-9.14 -5.1, -37.05 -8.09, -47.3 -13.36 C-57.54 -18.63, -56.76 -26.29, -62.53 -34.98 C-68.29 -43.66, -80.72 -46.39, -81.88 -65.47 C-83.03 -84.54, -72.74 -129.77, -69.46 -149.42 C-66.18 -169.07, -70.83 -169.91, -62.18 -183.37 C-53.54 -196.83, -33.23 -216.64, -17.57 -230.19 C-1.92 -243.75, 19.8 -258.83, 31.73 -264.7 C43.66 -270.56, 50.44 -265.17, 54.01 -265.4" stroke="#364fc7" stroke-width="4" fill="none"></path></g></g><mask></mask><g stroke-linecap="round"><g stroke-opacity="0.8" fill-opacity="0.8" transform="translate(145.986790923464 427.09332137831734) rotate(0 168.99109099866178 -136.14919411691926)"><path d="M1.05 2.66 C-3.37 -12.92, -20.37 -68.84, -24.97 -94.07 C-29.57 -119.31, -27.94 -134.22, -26.57 -148.74 C-25.19 -163.25, -25.72 -167.08, -16.71 -181.17 C-7.7 -195.26, 12.21 -220.8, 27.51 -233.29 C42.81 -245.78, 60.13 -249.65, 75.11 -256.09 C90.08 -262.54, 95.41 -269.34, 117.35 -271.96 C139.28 -274.58, 178.53 -274.67, 206.72 -271.81 C234.91 -268.95, 269.28 -261.05, 286.49 -254.82 C303.71 -248.59, 296.66 -253.68, 310.02 -234.41 C323.37 -215.13, 357.44 -154.67, 366.61 -139.18 M-1.83 1.64 C-6.55 -14.7, -21.73 -73.56, -25.93 -98.16 C-30.13 -122.76, -28.61 -132.44, -27.03 -145.96 C-25.45 -159.47, -25.12 -164.61, -16.46 -179.24 C-7.8 -193.87, 10.39 -220.69, 24.93 -233.73 C39.47 -246.76, 55.37 -250.51, 70.77 -257.45 C86.18 -264.38, 94.86 -272.86, 117.35 -275.34 C139.84 -277.83, 176.91 -276.54, 205.74 -272.35 C234.56 -268.16, 272.74 -256.59, 290.29 -250.2 C307.84 -243.81, 298.23 -251.7, 311.04 -234.01 C323.85 -216.33, 357.43 -159.37, 367.15 -144.08" stroke="#364fc7" stroke-width="4" fill="none"></path></g></g><mask></mask><g stroke-linecap="round"><g stroke-opacity="0.8" fill-opacity="0.8" transform="translate(508.33463227690345 280.8057598481555) rotate(0 156.45501396746704 36.57034573125475)"><path d="M2.35 1.7 C10.2 -3.76, 30.3 -22.77, 48.18 -30.12 C66.06 -37.48, 76.35 -42.59, 109.62 -42.43 C142.9 -42.27, 216.44 -37.98, 247.84 -29.15 C279.23 -20.32, 287.61 -13.28, 297.99 10.57 C308.37 34.42, 307.19 96.58, 310.12 113.96 M0.17 0.15 C7.79 -3.68, 29.4 -20.13, 47.29 -26.82 C65.17 -33.51, 73.81 -39.81, 107.48 -39.99 C141.15 -40.17, 217.98 -36.67, 249.32 -27.9 C280.65 -19.14, 285.06 -10.61, 295.49 12.59 C305.93 35.79, 309.54 94.75, 311.94 111.3" stroke="#364fc7" stroke-width="4" fill="none"></path></g></g><mask></mask><g stroke-linecap="round"><g stroke-opacity="0.8" fill-opacity="0.8" transform="translate(899.7092845282682 697.8883354273185) rotate(0 37.33651003305977 -163.72649545101194)"><path d="M2.48 -0.61 C14.26 -7.74, 52.56 -24.86, 73.03 -41.08 C93.5 -57.31, 113.86 -80.63, 125.29 -97.98 C136.73 -115.33, 139.66 -124.58, 141.62 -145.17 C143.58 -165.76, 141.18 -199.36, 137.07 -221.54 C132.96 -243.73, 129.2 -261.7, 116.97 -278.28 C104.75 -294.86, 80.91 -313.27, 63.73 -321.02 C46.54 -328.76, 31.5 -326.54, 13.86 -324.76 C-3.78 -322.99, -28.6 -314.87, -42.1 -310.37 C-55.6 -305.87, -63.37 -299.59, -67.15 -297.75 M0.37 -3.41 C11.51 -10.32, 49.78 -22.66, 70.45 -38.13 C91.12 -53.6, 112.26 -77.57, 124.38 -96.23 C136.5 -114.89, 140.45 -129.34, 143.18 -150.1 C145.9 -170.87, 145.74 -199.09, 140.72 -220.82 C135.71 -242.55, 125.83 -264.55, 113.1 -280.47 C100.37 -296.38, 79.98 -309.03, 64.35 -316.31 C48.71 -323.58, 36.28 -324.79, 19.28 -324.11 C2.29 -323.43, -23.35 -316.46, -37.63 -312.22 C-51.91 -307.97, -62.04 -301.07, -66.4 -298.65" stroke="#364fc7" stroke-width="4" fill="none"></path></g></g><mask></mask><g stroke-linecap="round" transform="translate(1256.6277582757107 358.18691710084204) rotate(0 299.46137388095804 160.1060365161552)"><path d="M80.05 0 C249.6 2.15, 419.13 2.26, 518.87 0 M518.87 0 C575.14 -3.99, 598.39 30.46, 598.92 80.05 M598.92 80.05 C594.95 134.73, 596.44 185.44, 598.92 240.16 M598.92 240.16 C596.13 293.99, 572.83 318.43, 518.87 320.21 M518.87 320.21 C355.78 324.74, 190.86 324.77, 80.05 320.21 M80.05 320.21 C28.33 320.25, 3.68 292.48, 0 240.16 M0 240.16 C0.01 182.05, -2.68 118.36, 0 80.05 M0 80.05 C1.57 24.99, 25.68 3.32, 80.05 0" stroke="#5f3dc4" stroke-width="2.5" fill="none" stroke-dasharray="8 10"></path></g><g transform="translate(1292.601068496345 316.4058493822504) rotate(0 173.22853088378906 12.377656208381268)"><text x="0" y="17.039906713538294" font-family="Virgil, Segoe UI Emoji" font-size="20.62942701396888px" fill="#5f3dc4" text-anchor="start" style="white-space: pre;" direction="ltr" dominant-baseline="alphabetic">Harbor Satellite (Single Container)</text></g><g stroke-linecap="round" transform="translate(1318.6917199003656 409.6356051108878) rotate(0 136.80829157313292 32.29277622275367)"><path d="M16.15 0 C105.15 -5.89, 188.9 0.57, 257.47 0 M16.15 0 C91.9 3.59, 169.14 3.54, 257.47 0 M257.47 0 C265.44 0.46, 274.2 3.6, 273.62 16.15 M257.47 0 C271.58 -1.56, 277.61 6.56, 273.62 16.15 M273.62 16.15 C275.01 26.99, 277.04 36.71, 273.62 48.44 M273.62 16.15 C273.24 30.64, 271.89 42.36, 273.62 48.44 M273.62 48.44 C275.19 57.5, 267.23 67.91, 257.47 64.59 M273.62 48.44 C276.93 58.94, 270.11 65.75, 257.47 64.59 M257.47 64.59 C207.95 63.43, 158.9 66.06, 16.15 64.59 M257.47 64.59 C202.95 61.98, 147.93 61.53, 16.15 64.59 M16.15 64.59 C8.02 67.49, 0.75 60.09, 0 48.44 M16.15 64.59 C4.67 66.4, -1.26 58.69, 0 48.44 M0 48.44 C0.6 43.29, -0.56 32.58, 0 16.15 M0 48.44 C-1.04 39.28, -1.88 28.01, 0 16.15 M0 16.15 C3.35 4.92, 8.19 3.85, 16.15 0 M0 16.15 C-1.15 4.3, 4.41 -4.52, 16.15 0" stroke="#5f3dc4" stroke-width="2" fill="none"></path></g><g transform="translate(1358.634052306018 425.1283813336413) rotate(0 96.86595916748047 16.800000000000182)"><text x="96.86595916748047" y="23.128" font-family="Virgil, Segoe UI Emoji" font-size="28px" fill="#5f3dc4" text-anchor="middle" style="white-space: pre;" direction="ltr" dominant-baseline="alphabetic">Satellite Core</text></g><g stroke-linecap="round" transform="translate(248.1846355399398 484.3222355980797) rotate(0 245.5 85.02451888199948)"><path d="M42.51 0 C124.22 -5.59, 204.04 -5.43, 448.49 0 M42.51 0 C202.51 -4.08, 364.22 -4.71, 448.49 0 M448.49 0 C479.74 -1.36, 494.48 15.2, 491 42.51 M448.49 0 C478.42 -1.84, 492.67 16.07, 491 42.51 M491 42.51 C496.07 67.41, 494.95 93.14, 491 127.54 M491 42.51 C490.41 75.58, 489.12 112.01, 491 127.54 M491 127.54 C493.88 155.65, 478.46 171.06, 448.49 170.05 M491 127.54 C486.49 159.95, 478.44 168.98, 448.49 170.05 M448.49 170.05 C356.25 170.27, 265.25 170.44, 42.51 170.05 M448.49 170.05 C301.73 172.48, 153.72 171.92, 42.51 170.05 M42.51 170.05 C13.55 171.63, -1.09 155.44, 0 127.54 M42.51 170.05 C10.47 167.62, 1.6 156.17, 0 127.54 M0 127.54 C0.1 100.91, 0.79 67.17, 0 42.51 M0 127.54 C2.86 100.52, 2.59 75.88, 0 42.51 M0 42.51 C-1 13.23, 13.33 -3.93, 42.51 0 M0 42.51 C-4.35 18.38, 17.24 0.68, 42.51 0" stroke="#1864ab" stroke-width="4" fill="none"></path></g><g transform="translate(437.1646465262679 547.7467544800793) rotate(0 56.519989013671875 21.59999999999991)"><text x="56.519989013671875" y="29.735999999999997" font-family="Virgil, Segoe UI Emoji" font-size="36px" fill="#1864ab" text-anchor="middle" style="white-space: pre;" direction="ltr" dominant-baseline="alphabetic">Harbor</text></g><g stroke-linecap="round" transform="translate(713.1282689463619 400.1736363109376) rotate(0 128 32.126866593194336)"><path d="M16.06 0 C73.3 1.5, 127.13 -0.4, 239.94 0 M16.06 0 C87.06 1.14, 157.05 2.16, 239.94 0 M239.94 0 C252.03 -1.6, 257.45 7, 256 16.06 M239.94 0 C250.68 4.23, 254.79 9.39, 256 16.06 M256 16.06 C260.34 21.93, 258.73 35.81, 256 48.19 M256 16.06 C257.28 24.22, 256.65 33.12, 256 48.19 M256 48.19 C252.08 62.44, 252.04 63.33, 239.94 64.25 M256 48.19 C252.47 57.43, 250.74 60.89, 239.94 64.25 M239.94 64.25 C173.68 64.64, 104.3 67.03, 16.06 64.25 M239.94 64.25 C156.26 65.78, 72.65 64.91, 16.06 64.25 M16.06 64.25 C2.14 62.14, 1.39 59.15, 0 48.19 M16.06 64.25 C7.59 63.21, -1.93 58.57, 0 48.19 M0 48.19 C0.54 33.34, -3.1 27.43, 0 16.06 M0 48.19 C-0.95 38.45, -0.87 27.7, 0 16.06 M0 16.06 C-3.78 9.01, 8.02 0.59, 16.06 0 M0 16.06 C0.51 5.08, 3.98 -4.26, 16.06 0" stroke="#5f3dc4" stroke-width="1" fill="none"></path></g><g transform="translate(738.1723134409908 415.5005029041322) rotate(0 102.9559555053711 16.800000000000182)"><text x="102.9559555053711" y="23.128" font-family="Virgil, Segoe UI Emoji" font-size="28px" fill="#5f3dc4" text-anchor="middle" style="white-space: pre;" direction="ltr" dominant-baseline="alphabetic">Ground Control</text></g><g transform="translate(889.8589195000382 255.82209514823717) rotate(359.42864027694986 96.55795288085938 52.5)"><text x="0" y="24.528" font-family="Virgil, Segoe UI Emoji" font-size="28px" fill="#343a40" text-anchor="start" style="white-space: pre;" direction="ltr" dominant-baseline="alphabetic"></text><text x="0" y="59.528" font-family="Virgil, Segoe UI Emoji" font-size="28px" fill="#343a40" text-anchor="start" style="white-space: pre;" direction="ltr" dominant-baseline="alphabetic">Registration</text><text x="0" y="94.52799999999999" font-family="Virgil, Segoe UI Emoji" font-size="28px" fill="#343a40" text-anchor="start" style="white-space: pre;" direction="ltr" dominant-baseline="alphabetic">Tunnel Set up</text></g><g stroke-linecap="round" transform="translate(1320.002670343857 495.2038314770143) rotate(0 137.7540581175465 65)"><path d="M32.5 0 C111.89 -2, 188.05 -1.95, 243.01 0 M32.5 0 C103.87 -1.87, 175.87 -2.37, 243.01 0 M243.01 0 C264.14 3.96, 272.28 13.18, 275.51 32.5 M243.01 0 C266.48 -1.95, 274.35 14.65, 275.51 32.5 M275.51 32.5 C276.45 52.76, 278.97 82.25, 275.51 97.5 M275.51 32.5 C274.55 49.03, 274.62 66.67, 275.51 97.5 M275.51 97.5 C276.04 121.7, 264.53 131.44, 243.01 130 M275.51 97.5 C278.54 122.51, 265.54 131.02, 243.01 130 M243.01 130 C182.73 126.15, 121.37 130.21, 32.5 130 M243.01 130 C177.77 129.03, 115.35 129.34, 32.5 130 M32.5 130 C9.73 130.6, -2.8 116.13, 0 97.5 M32.5 130 C14.68 129.47, 3.23 123.59, 0 97.5 M0 97.5 C-3.62 75.85, 3.97 64.43, 0 32.5 M0 97.5 C-0.74 75.19, -0.06 56.44, 0 32.5 M0 32.5 C2.09 8.85, 13.81 -2.17, 32.5 0 M0 32.5 C-4.46 6.84, 10.23 -1.91, 32.5 0" stroke="#2b8a3e" stroke-width="2" fill="none"></path></g><g transform="translate(1385.3627617865989 526.603831477014) rotate(0 72.39396667480469 33.59999999999991)"><text x="72.39396667480469" y="23.128" font-family="Virgil, Segoe UI Emoji" font-size="28px" fill="#2b8a3e" text-anchor="middle" style="white-space: pre;" direction="ltr" dominant-baseline="alphabetic">Registry &amp;</text><text x="72.39396667480469" y="56.728" font-family="Virgil, Segoe UI Emoji" font-size="28px" fill="#2b8a3e" text-anchor="middle" style="white-space: pre;" direction="ltr" dominant-baseline="alphabetic">Proxy</text></g><g stroke-linecap="round"><g transform="translate(1443.769947687336 645.9099765991195) rotate(0 -6.019314193858349 104.55534669394365)"><path d="M0.02 2.58 C-2.28 37.65, -10.69 176.86, -12.78 211.57 M-3.41 1.51 C-6.24 35.74, -13.55 173.78, -15.41 207.89" stroke="#2b8a3e" stroke-width="1" fill="none"></path></g><g transform="translate(1443.769947687336 645.9099765991195) rotate(0 -6.019314193858349 104.55534669394365)"><path d="M-20.84 183.44 C-18.38 191.67, -16.5 199.79, -13.43 206.28 M-22.93 184.8 C-19.26 192.52, -16.97 201.41, -16.39 208.77" stroke="#2b8a3e" stroke-width="1" fill="none"></path></g><g transform="translate(1443.769947687336 645.9099765991195) rotate(0 -6.019314193858349 104.55534669394365)"><path d="M-3.76 184.37 C-7.05 192.29, -10.91 200.09, -13.43 206.28 M-5.86 185.72 C-8.31 193.04, -12.14 201.6, -16.39 208.77" stroke="#2b8a3e" stroke-width="1" fill="none"></path></g></g><mask></mask><g stroke-linecap="round"><g transform="translate(1106.7295638674427 12.27455503195415) rotate(0 0.06736245076001524 509.8978256126702)"><path d="M-2.74 2.48 C-2.75 172.22, 0.99 849.74, 1.11 1019.15" stroke="#a61e4d" stroke-width="4.5" fill="none" stroke-dasharray="8 12"></path></g></g><mask></mask><g transform="translate(1142.626077114061 10) rotate(0 41.23798370361328 21.59999999999991)"><text x="41.23798370361328" y="29.735999999999997" font-family="Virgil, Segoe UI Emoji" font-size="36px" fill="#a61e4d" text-anchor="middle" style="white-space: pre;" direction="ltr" dominant-baseline="alphabetic">Edge</text></g><g transform="translate(976.4002136044824 10) rotate(0 46.76398468017578 21.59999999999991)"><text x="46.76398468017578" y="29.735999999999997" font-family="Virgil, Segoe UI Emoji" font-size="36px" fill="#a61e4d" text-anchor="middle" style="white-space: pre;" direction="ltr" dominant-baseline="alphabetic">Cloud</text></g><g stroke-linecap="round"><g transform="translate(603.4466311893216 471.81922016989483) rotate(0 52.82466911013125 -19.514503135584164)"><path d="M1.85 2.03 C19.56 -4.54, 88.95 -31.75, 106.17 -38.41 M-0.59 0.67 C16.8 -6.9, 86.93 -35.83, 104.22 -43.09" stroke="#0b7285" stroke-width="4" fill="none"></path></g><g transform="translate(603.4466311893216 471.81922016989483) rotate(0 52.82466911013125 -19.514503135584164)"><path d="M22.12 -14.05 C15.59 -9.73, 10.36 -5.09, 1.63 0.42 M21.15 -14.65 C15.66 -10.41, 12.17 -6.17, 1.57 2.18" stroke="#0b7285" stroke-width="4" fill="none"></path></g><g transform="translate(603.4466311893216 471.81922016989483) rotate(0 52.82466911013125 -19.514503135584164)"><path d="M28.29 1.9 C19.88 1.53, 12.82 1.45, 1.63 0.42 M27.33 1.3 C20.25 1.6, 15.24 1.89, 1.57 2.18" stroke="#0b7285" stroke-width="4" fill="none"></path></g><g transform="translate(603.4466311893216 471.81922016989483) rotate(0 52.82466911013125 -19.514503135584164)"><path d="M87.27 -25.79 C91.65 -31.62, 97.46 -36.87, 104 -44.69 M86.3 -26.4 C89.89 -30.43, 95.61 -34.44, 103.94 -42.93" stroke="#0b7285" stroke-width="4" fill="none"></path></g><g transform="translate(603.4466311893216 471.81922016989483) rotate(0 52.82466911013125 -19.514503135584164)"><path d="M80.7 -41.58 C87.09 -42.77, 94.84 -43.34, 104 -44.69 M79.73 -42.19 C85 -42.33, 92.34 -42.43, 103.94 -42.93" stroke="#0b7285" stroke-width="4" fill="none"></path></g></g><mask></mask><g stroke-linecap="round"><g transform="translate(984.6757204335804 422.3160930723625) rotate(0 159.28516040506406 12.652423285899204)"><path d="M0.53 0.62 C53.24 4.68, 265.26 22.35, 318.14 26.41 M-2.63 -1.51 C49.5 1.51, 262.63 17.09, 315.66 22" stroke="#0b7285" stroke-width="4" fill="none"></path></g><g transform="translate(984.6757204335804 422.3160930723625) rotate(0 159.28516040506406 12.652423285899204)"><path d="M25.08 -6.31 C16.65 -4.08, 6.81 -2.72, -0.53 1.31 M24.22 -6.07 C18.03 -3.92, 9.62 -1.85, -0.17 -0.14" stroke="#0b7285" stroke-width="4" fill="none"></path></g><g transform="translate(984.6757204335804 422.3160930723625) rotate(0 159.28516040506406 12.652423285899204)"><path d="M23.69 10.74 C15.64 6.73, 6.32 1.85, -0.53 1.31 M22.83 10.98 C16.99 7.9, 9 4.76, -0.17 -0.14" stroke="#0b7285" stroke-width="4" fill="none"></path></g></g><mask></mask><g transform="translate(1037.7797803296385 603.4554658672887) rotate(359.42864027694986 24.569992065429688 16.800000000000182)"><text x="0" y="23.128" font-family="Virgil, Segoe UI Emoji" font-size="28px" fill="#343a40" text-anchor="start" style="white-space: pre;" direction="ltr" dominant-baseline="alphabetic">Pull</text></g><g stroke-opacity="0" fill-opacity="0" stroke-linecap="round" transform="translate(1370.531574071294 861.319926774966) rotate(0 58.37866158183556 58.378661581835786)"><path d="M35.59 5.14 C43.21 0.86, 53.89 -1, 62.88 -0.23 C71.87 0.55, 81.84 4.95, 89.54 9.81 C97.23 14.67, 104.5 21.35, 109.05 28.94 C113.61 36.53, 116.65 46.14, 116.86 55.36 C117.08 64.58, 114.27 75.87, 110.35 84.27 C106.42 92.67, 100.25 100.52, 93.31 105.77 C86.36 111.02, 77.62 114.46, 68.67 115.76 C59.73 117.05, 48.53 116.52, 39.63 113.53 C30.72 110.55, 21.34 104.23, 15.27 97.85 C9.2 91.47, 5.53 83.77, 3.21 75.26 C0.89 66.74, -0.32 55.8, 1.33 46.78 C2.99 37.76, 6.85 28.42, 13.12 21.13 C19.39 13.84, 33.72 6.01, 38.96 3.05 C44.2 0.09, 44.19 2.32, 44.57 3.36 M42.56 1.51 C50.95 -1.25, 62.44 0.03, 71.27 2.26 C80.11 4.48, 88.7 9.05, 95.55 14.85 C102.4 20.66, 108.68 28.86, 112.38 37.08 C116.08 45.3, 118.44 55.1, 117.77 64.16 C117.09 73.21, 113.51 83.81, 108.34 91.42 C103.16 99.04, 94.98 105.43, 86.74 109.87 C78.49 114.31, 67.99 117.84, 58.87 118.05 C49.75 118.26, 39.98 115.51, 32.03 111.15 C24.08 106.79, 16.56 99.2, 11.18 91.9 C5.8 84.6, 1.24 75.92, -0.27 67.34 C-1.78 58.76, -1.17 49.2, 2.12 40.42 C5.41 31.65, 12.91 20.86, 19.45 14.68 C25.99 8.5, 37.53 5.28, 41.33 3.35 C45.13 1.41, 41.95 2.59, 42.26 3.08" stroke="#1e1e1e" stroke-width="1" fill="none"></path></g><g stroke-linecap="round"><g transform="translate(1403.66892000394 878.3581619360339) rotate(0 25.196226156146963 26.381197188243277)"><path d="M0 0 C10.27 1.03, 22.78 1.3, 41.54 0 M0 0 C12.27 0.13, 22.77 0.18, 41.54 0 M41.54 0 C43.38 2.53, 46.68 3.19, 50.39 7.73 M41.54 0 C43.41 2.76, 46.81 4.45, 50.39 7.73 M50.39 7.73 C48.51 21.83, 50.22 36.8, 50.39 52.76 M50.39 7.73 C49.76 18.15, 50.6 29.88, 50.39 52.76 M50.39 52.76 C35.19 52.74, 17.89 54.35, 0.5 52.76 M50.39 52.76 C33.79 53.6, 16.74 54.07, 0.5 52.76 M0.5 52.76 C-1.11 38.29, 0.46 24.84, 0 0 M0.5 52.76 C-1.01 33.72, -0.78 12.94, 0 0" stroke="#1e1e1e" stroke-width="1" fill="none"></path></g></g><mask></mask><g stroke-linecap="round" transform="translate(1412.8992206750027 904.8017260207016) rotate(0 16.71432824219653 10.477638599586044)"><path d="M0 0 C7.4 0.43, 14.45 -0.48, 33.43 0 M0 0 C9.65 0.06, 19.23 -0.4, 33.43 0 M33.43 0 C34.38 7.79, 33.18 15.87, 33.43 20.96 M33.43 0 C33.66 4.3, 33.39 8.43, 33.43 20.96 M33.43 20.96 C24.33 21.48, 14.88 21.71, 0 20.96 M33.43 20.96 C25.15 20.6, 17.19 21.12, 0 20.96 M0 20.96 C0.57 15.85, 0.2 9.71, 0 0 M0 20.96 C-0.38 13.29, -0.23 4.85, 0 0" stroke="#1e1e1e" stroke-width="1" fill="none"></path></g><g stroke-linecap="round" transform="translate(1418.761708939057 881.9754419287474) rotate(0 12.223911699516862 7.671128260411024)"><path d="M0 0 C7.96 -0.48, 16.3 0.69, 24.45 0 M0 0 C7.23 -0.4, 15.59 -0.08, 24.45 0 M24.45 0 C24.34 5.52, 23.77 10.63, 24.45 15.34 M24.45 0 C24.54 5.98, 24.38 11.66, 24.45 15.34 M24.45 15.34 C16.51 16.15, 9.02 14.44, 0 15.34 M24.45 15.34 C19.43 15.61, 13.94 15.72, 0 15.34 M0 15.34 C0.17 11.19, 0.61 5.91, 0 0 M0 15.34 C-0.13 10.19, 0.03 4.62, 0 0" stroke="#1e1e1e" stroke-width="1" fill="none"></path></g><g stroke-linecap="round" transform="translate(1433.106095117062 885.0937867500525) rotate(0 2.4946758570442853 3.929114474844937)"><path d="M0 0 C1.73 0.13, 3.49 -0.04, 4.99 0 M0 0 C1.64 0, 3.2 0.09, 4.99 0 M4.99 0 C4.73 1.91, 5.22 4.5, 4.99 7.86 M4.99 0 C4.95 2.35, 5 4.94, 4.99 7.86 M4.99 7.86 C3.14 7.71, 1.33 7.85, 0 7.86 M4.99 7.86 C3.69 7.94, 2.41 7.92, 0 7.86 M0 7.86 C0.22 4.8, 0.1 1.62, 0 0 M0 7.86 C0 4.72, -0.07 1.78, 0 0" stroke="#1e1e1e" stroke-width="1" fill="none"></path></g><g transform="translate(1398.0902664758833 937.7195841385164) rotate(0 30.819969177246094 12.5)"><text x="30.819969177246094" y="17.52" font-family="Virgil, Segoe UI Emoji" font-size="20px" fill="#1e1e1e" text-anchor="middle" style="white-space: pre;" direction="ltr" dominant-baseline="alphabetic">Volume</text></g><g stroke-linecap="round" transform="translate(1864.7009786426624 584.5667038147976) rotate(0 54.9277487231883 45.16199898829245)"><path d="M22.58 0 C46.66 1.14, 69.66 0.31, 87.27 0 M22.58 0 C41.07 0.54, 58.46 -0.12, 87.27 0 M87.27 0 C102.51 0.77, 109.98 5.54, 109.86 22.58 M87.27 0 C104.42 -1.59, 111.76 9.21, 109.86 22.58 M109.86 22.58 C108.38 37.58, 108.61 55.84, 109.86 67.74 M109.86 22.58 C108.89 31.9, 109.5 41.42, 109.86 67.74 M109.86 67.74 C110.14 83.18, 102.65 89.92, 87.27 90.32 M109.86 67.74 C111.09 82.22, 102.6 88.2, 87.27 90.32 M87.27 90.32 C69.38 90.93, 55.62 91.65, 22.58 90.32 M87.27 90.32 C62.33 89.49, 35.54 89.85, 22.58 90.32 M22.58 90.32 C7.58 89.07, -1.11 82.08, 0 67.74 M22.58 90.32 C5.92 91.25, 0.41 84.36, 0 67.74 M0 67.74 C-0.75 52.06, -0.73 32.92, 0 22.58 M0 67.74 C-0.4 53.25, -1.04 36.61, 0 22.58 M0 22.58 C-0.71 5.81, 6.48 -1.11, 22.58 0 M0 22.58 C-1.27 6.02, 7.47 -1.69, 22.58 0" stroke="#1971c2" stroke-width="2" fill="none"></path></g><g transform="translate(1885.3087581886045 599.7287028030896) rotate(0 34.319969177246094 30)"><text x="34.319969177246094" y="14.016" font-family="Virgil, Segoe UI Emoji" font-size="16px" fill="#2f9e44" text-anchor="middle" style="white-space: pre;" direction="ltr" dominant-baseline="alphabetic">Spegel</text><text x="34.319969177246094" y="34.016" font-family="Virgil, Segoe UI Emoji" font-size="16px" fill="#2f9e44" text-anchor="middle" style="white-space: pre;" direction="ltr" dominant-baseline="alphabetic">(opt </text><text x="34.319969177246094" y="54.016" font-family="Virgil, Segoe UI Emoji" font-size="16px" fill="#2f9e44" text-anchor="middle" style="white-space: pre;" direction="ltr" dominant-baseline="alphabetic">Registry)</text></g><g stroke-linecap="round" transform="translate(1263.7427019260688 690.8335663514099) rotate(0 435.44940730375106 38.6274085110872)"><path d="M19.31 0 C230.7 -0.93, 443.28 -1.83, 851.59 0 M19.31 0 C252.93 1.36, 485.88 1.26, 851.59 0 M851.59 0 C865.96 -0.96, 871.07 5.28, 870.9 19.31 M851.59 0 C863.35 -1.38, 869.04 4.57, 870.9 19.31 M870.9 19.31 C870.3 29.94, 870.69 39.89, 870.9 57.94 M870.9 19.31 C871.72 34.37, 870.62 48.4, 870.9 57.94 M870.9 57.94 C869.59 70.64, 863.59 76.19, 851.59 77.25 M870.9 57.94 C868.62 72.01, 864.65 75.71, 851.59 77.25 M851.59 77.25 C529.3 74.28, 205.15 75.26, 19.31 77.25 M851.59 77.25 C664.96 79.77, 478.96 79.83, 19.31 77.25 M19.31 77.25 C5.91 77.39, 1.82 70.43, 0 57.94 M19.31 77.25 C4.18 79.11, -0.3 72.52, 0 57.94 M0 57.94 C1.59 44.15, 1.62 33.09, 0 19.31 M0 57.94 C0.82 49.89, 0 41.23, 0 19.31 M0 19.31 C1.46 5.04, 5.01 -0.59, 19.31 0 M0 19.31 C-1.25 4.36, 5.44 -1.26, 19.31 0" stroke="#1971c2" stroke-width="2" fill="none"></path></g><g transform="translate(1611.8221827771831 716.9609748624971) rotate(0 87.36992645263672 12.5)"><text x="87.36992645263672" y="17.52" font-family="Virgil, Segoe UI Emoji" font-size="20px" fill="#e03131" text-anchor="middle" style="white-space: pre;" direction="ltr" dominant-baseline="alphabetic">Container Runtime</text></g><g mask="url(#mask-iKnGmFKuAsPomKoQWTPFe)" stroke-linecap="round"><g transform="translate(1780.329303807824 686.283980859901) rotate(0 -93.09791003173689 -112.90283787571298)"><path d="M0.06 1.43 C-31 -35.93, -153.57 -185.63, -184.7 -223.36" stroke="#0b7285" stroke-width="4.5" fill="none" stroke-dasharray="8 12"></path></g><g transform="translate(1780.329303807824 686.283980859901) rotate(0 -93.09791003173689 -112.90283787571298)"><path d="M-20.44 -10.22 C-11.95 -7.1, -5.37 -1.45, -1.25 0.6" stroke="#0b7285" stroke-width="4.5" fill="none"></path></g><g transform="translate(1780.329303807824 686.283980859901) rotate(0 -93.09791003173689 -112.90283787571298)"><path d="M-7.23 -21.08 C-3.45 -14.05, -1.62 -4.51, -1.25 0.6" stroke="#0b7285" stroke-width="4.5" fill="none"></path></g></g><mask id="mask-iKnGmFKuAsPomKoQWTPFe"><rect x="0" y="0" fill="#fff" width="2066.525123871298" height="1012.089656611327"></rect><rect x="1629.871454200892" y="548.381142984188" fill="#000" width="114.71987915039062" height="50" opacity="1"></rect></mask><g transform="translate(1629.871454200892 548.381142984188) rotate(0 58.13853415399785 26.938913379609403)"><text x="57.35993957519531" y="17.52" font-family="Virgil, Segoe UI Emoji" font-size="20px" fill="#e03131" text-anchor="middle" style="white-space: pre;" direction="ltr" dominant-baseline="alphabetic">update</text><text x="57.35993957519531" y="42.519999999999996" font-family="Virgil, Segoe UI Emoji" font-size="20px" fill="#e03131" text-anchor="middle" style="white-space: pre;" direction="ltr" dominant-baseline="alphabetic">Conifg (opt)</text></g><g stroke-linecap="round"><g transform="translate(2065.1158528300666 518.4199792469735) rotate(0 0.3407491551474777 78.37816143334476)" fill-rule="evenodd"><path d="M0 -0.15 L-64.15 33.25 L-79.42 98.95 L-35.89 157.5 L40.74 157.36 L78.5 93.27 L64.27 29.63 L0.06 0.44" stroke="none" stroke-width="0" fill="#326ce5" fill-rule="evenodd"></path><path d="M0 0 C-20.46 8.63, -43.05 19.21, -66.11 31.62 M0 0 C-19.93 10.57, -41.5 20.65, -66.11 31.62 M-66.11 31.62 C-69.11 53.87, -73.8 76.77, -79.74 99.23 M-66.11 31.62 C-71.39 54.58, -74.74 78.66, -79.74 99.23 M-79.74 99.23 C-66.67 116.01, -51.9 132.15, -34.07 156.76 M-79.74 99.23 C-66.18 116.85, -52.47 132.56, -34.07 156.76 M-34.07 156.76 C-5.68 156.34, 20.38 155.26, 42.59 156.42 M-34.07 156.76 C-7.46 156.3, 19.22 156.25, 42.59 156.42 M42.59 156.42 C56.37 134.22, 67.68 112.85, 80.42 94.86 M42.59 156.42 C54.7 136.59, 66.92 117.46, 80.42 94.86 M80.42 94.86 C74.83 75.23, 72.2 61.49, 65.42 28.26 M80.42 94.86 C76.58 74.21, 72.42 55.36, 65.42 28.26 M65.42 28.26 C40.8 15.64, 14.83 4.91, 0 0 M65.42 28.26 C48.94 20.43, 31.54 14.07, 0 0 M0 0 C0 0, 0 0, 0 0 M0 0 C0 0, 0 0, 0 0" stroke="#000000" stroke-width="1" fill="none"></path></g></g><mask></mask><g stroke-linecap="round"><g transform="translate(2052.6281055800973 557.310262634699) rotate(0.5801223728874558 14.703663134506257 39.7338425597618)" fill-rule="evenodd"><path d="M-2.35 -1.95 C-0.78 -2.32, 5.2 -0.29, 7.16 -1.07 C9.13 -1.85, 9.29 -3.69, 9.45 -6.63 C9.6 -9.58, 7.6 -16.18, 8.07 -18.74 C8.55 -21.31, 11.59 -24.12, 12.28 -22 C12.97 -19.87, 11.53 -8.82, 12.22 -6 C12.9 -3.18, 13.99 -6.11, 16.41 -5.09 C18.83 -4.06, 23.09 -1.15, 26.76 0.14 C30.43 1.44, 34.77 1.29, 38.45 2.68 C42.14 4.07, 46.61 7.73, 48.89 8.48 C51.17 9.23, 50.26 7.94, 52.13 7.2 C54 6.45, 58.13 4.58, 60.12 4.03 C62.12 3.49, 64.83 2.36, 64.09 3.92 C63.36 5.47, 57.33 11.8, 55.7 13.37 C54.08 14.94, 54.27 11.57, 54.32 13.35 C54.38 15.13, 54.87 20.04, 56.05 24.05 C57.24 28.06, 60.19 32.8, 61.42 37.43 C62.65 42.06, 62.88 49.58, 63.41 51.82 C63.95 54.06, 62.51 50.43, 64.62 50.86 C66.73 51.29, 74.08 53.41, 76.07 54.4 C78.06 55.39, 78.74 56.33, 76.56 56.79 C74.39 57.26, 65.67 57.01, 63.01 57.21 C60.36 57.41, 61.94 56.19, 60.63 58 C59.31 59.8, 57.34 65.34, 55.14 68.06 C52.93 70.78, 50.07 71.52, 47.38 74.34 C44.7 77.17, 40.55 82.57, 39.04 85.01 C37.53 87.46, 36.82 87.19, 38.32 89.02 C39.82 90.85, 47.55 94.61, 48.06 96.02 C48.56 97.42, 42.97 98.68, 41.33 97.45 C39.69 96.23, 39.43 90.17, 38.24 88.65 C37.05 87.14, 37.33 88.09, 34.17 88.35 C31.01 88.6, 24.22 90.46, 19.26 90.18 C14.31 89.9, 9.05 87.99, 4.43 86.67 C-0.19 85.35, -6.29 82.45, -8.45 82.25 C-10.62 82.04, -7.92 82.71, -8.57 85.44 C-9.22 88.18, -10.48 96.84, -12.36 98.66 C-14.24 100.47, -20.3 98.95, -19.84 96.34 C-19.38 93.72, -10.93 85.07, -9.58 82.99 C-8.22 80.9, -9.7 85.45, -11.72 83.85 C-13.74 82.24, -19.23 76.18, -21.68 73.37 C-24.13 70.56, -24.69 69.31, -26.41 66.99 C-28.14 64.68, -30.97 61.15, -32.02 59.48 C-33.07 57.82, -30.23 56.93, -32.71 57.02 C-35.2 57.1, -44.69 59.96, -46.93 59.98 C-49.17 59.99, -47.84 57.87, -46.14 57.12 C-44.43 56.38, -39.21 56.13, -36.71 55.49 C-34.21 54.85, -31.72 55.87, -31.16 53.27 C-30.59 50.68, -33.94 44.19, -33.29 39.93 C-32.65 35.66, -28.8 31.07, -27.3 27.69 C-25.8 24.3, -24.35 22.13, -24.28 19.62 C-24.21 17.1, -25.12 14.23, -26.88 12.59 C-28.64 10.96, -33.72 11.21, -34.83 9.82 C-35.93 8.42, -35.41 4.22, -33.53 4.23 C-31.65 4.25, -26.17 8.83, -23.53 9.92 C-20.89 11, -19.45 11.76, -17.69 10.77 C-15.94 9.77, -16.21 5.77, -13.02 3.96 C-9.83 2.14, -0.65 0.53, 1.44 -0.12" stroke="none" stroke-width="0" fill="#ffff" fill-rule="evenodd"></path><path d="M-0.37 -0.87 C1.27 -1.35, 6.87 -1.57, 8.62 -2.6 C10.36 -3.62, 10.04 -4.26, 10.1 -7 C10.16 -9.74, 8.38 -16.99, 8.98 -19.05 C9.58 -21.1, 12.86 -21.36, 13.68 -19.33 C14.5 -17.29, 13.53 -9.7, 13.92 -6.84 C14.32 -3.98, 14.15 -3.23, 16.07 -2.16 C17.99 -1.1, 21.6 -1.56, 25.45 -0.45 C29.29 0.65, 35.42 2.65, 39.13 4.45 C42.85 6.25, 46.02 9.57, 47.76 10.34 C49.5 11.11, 47.6 10.21, 49.57 9.07 C51.53 7.92, 57.56 3.95, 59.53 3.47 C61.51 2.99, 62.48 4.77, 61.41 6.19 C60.34 7.61, 54.61 10.22, 53.1 11.98 C51.6 13.74, 51.53 14.38, 52.36 16.77 C53.19 19.15, 56.64 22.49, 58.09 26.28 C59.54 30.07, 60.49 35.28, 61.06 39.5 C61.62 43.72, 60.93 49.5, 61.45 51.6 C61.98 53.7, 61.86 51.77, 64.19 52.11 C66.52 52.45, 73.75 52.4, 75.44 53.62 C77.12 54.85, 76.32 58.88, 74.31 59.46 C72.3 60.04, 65.85 57.38, 63.38 57.1 C60.91 56.82, 60.81 55.95, 59.46 57.8 C58.11 59.65, 57.28 65.11, 55.28 68.19 C53.28 71.27, 50.53 73.54, 47.46 76.27 C44.39 79, 38.19 82.81, 36.85 84.54 C35.52 86.28, 38.04 84.55, 39.44 86.69 C40.84 88.84, 45.08 95.37, 45.25 97.39 C45.42 99.42, 42.08 100.19, 40.45 98.82 C38.83 97.45, 36.8 91.43, 35.49 89.17 C34.17 86.91, 34.99 85.41, 32.56 85.25 C30.13 85.08, 25.46 87.74, 20.91 88.19 C16.36 88.64, 9.84 88.34, 5.26 87.92 C0.68 87.51, -3.99 85.96, -6.55 85.69 C-9.11 85.42, -8.56 84.39, -10.09 86.31 C-11.62 88.23, -14.55 95.82, -15.73 97.19 C-16.91 98.56, -17.63 96.43, -17.16 94.54 C-16.69 92.64, -13.91 88.09, -12.92 85.81 C-11.92 83.53, -10.22 82.45, -11.19 80.88 C-12.16 79.3, -16.31 79.1, -18.71 76.36 C-21.11 73.63, -23.68 67.4, -25.59 64.46 C-27.5 61.53, -28.62 59.81, -30.17 58.73 C-31.73 57.65, -32.37 57.7, -34.93 57.98 C-37.49 58.25, -43.68 60.84, -45.54 60.38 C-47.4 59.92, -47.96 56.11, -46.1 55.2 C-44.23 54.29, -36.73 55.22, -34.37 54.92 C-32.02 54.62, -32.24 56.22, -31.97 53.39 C-31.7 50.56, -33.35 42.18, -32.76 37.94 C-32.16 33.71, -30.05 31.19, -28.41 27.98 C-26.77 24.77, -23.23 21.18, -22.92 18.68 C-22.6 16.17, -24.22 14.52, -26.52 12.97 C-28.82 11.41, -35.5 10.65, -36.71 9.33 C-37.92 8.02, -35.74 4.56, -33.79 5.06 C-31.84 5.57, -27.38 11.21, -25.02 12.37 C-22.65 13.53, -22.1 13.03, -19.62 12.04 C-17.14 11.05, -13.44 8.47, -10.14 6.43 C-6.84 4.4, -1.32 0.83, 0.19 -0.17 M1.64 1.28 C3.23 1.01, 6.35 0.17, 7.69 -0.97 C9.04 -2.12, 9.39 -2.21, 9.71 -5.59 C10.03 -8.97, 8.61 -19.1, 9.61 -21.25 C10.62 -23.4, 14.76 -20.73, 15.73 -18.48 C16.71 -16.24, 15.28 -10.35, 15.46 -7.79 C15.65 -5.23, 15.32 -4.33, 16.85 -3.11 C18.37 -1.9, 21.07 -1.58, 24.61 -0.5 C28.14 0.57, 34.02 1.6, 38.05 3.34 C42.09 5.08, 46.96 8.86, 48.84 9.94 C50.71 11.02, 47.71 10.94, 49.3 9.84 C50.9 8.73, 56.36 3.99, 58.39 3.32 C60.42 2.65, 62.53 4.41, 61.51 5.82 C60.49 7.22, 53.71 9.93, 52.27 11.76 C50.83 13.6, 51.71 14.2, 52.89 16.82 C54.07 19.45, 58.2 24.15, 59.35 27.52 C60.5 30.9, 59.64 32.92, 59.77 37.08 C59.9 41.23, 59.63 49.99, 60.14 52.47 C60.65 54.95, 60.15 51.49, 62.83 51.95 C65.51 52.42, 74.49 54.11, 76.22 55.26 C77.95 56.41, 75.35 58.69, 73.24 58.83 C71.13 58.98, 65.94 56.38, 63.58 56.12 C61.21 55.86, 60.76 55.31, 59.05 57.26 C57.34 59.21, 55.03 64.58, 53.34 67.83 C51.64 71.08, 51.51 73.96, 48.89 76.75 C46.27 79.55, 39.5 83.12, 37.6 84.62 C35.71 86.13, 36.04 83.91, 37.51 85.78 C38.99 87.66, 46 93.51, 46.45 95.87 C46.9 98.23, 41.82 101.28, 40.2 99.95 C38.58 98.62, 38.03 90.12, 36.73 87.9 C35.43 85.68, 35 86.37, 32.4 86.64 C29.8 86.91, 25.9 88.87, 21.14 89.52 C16.37 90.17, 8.17 91.49, 3.81 90.53 C-0.56 89.57, -2.93 84.61, -5.07 83.73 C-7.21 82.86, -7.21 82.81, -9.02 85.3 C-10.83 87.78, -14.38 97.34, -15.92 98.67 C-17.45 100, -18.77 95.46, -18.24 93.27 C-17.71 91.07, -13.8 87.53, -12.73 85.51 C-11.66 83.48, -10.62 82.57, -11.81 81.13 C-12.99 79.68, -17.07 79.6, -19.81 76.86 C-22.56 74.11, -26.75 67.6, -28.28 64.64 C-29.82 61.68, -28.27 60.21, -29.01 59.1 C-29.76 57.99, -30 57.59, -32.75 57.97 C-35.51 58.36, -43.74 62, -45.55 61.42 C-47.37 60.83, -45.27 55.53, -43.64 54.48 C-42.02 53.44, -37.57 55.31, -35.82 55.16 C-34.07 55, -33.62 56.7, -33.14 53.57 C-32.65 50.43, -33.74 40.74, -32.92 36.33 C-32.11 31.93, -29.53 29.99, -28.25 27.14 C-26.97 24.29, -25.67 21.37, -25.26 19.23 C-24.84 17.09, -23.88 15.98, -25.76 14.29 C-27.64 12.61, -35.32 10.63, -36.55 9.13 C-37.77 7.64, -34.88 4.6, -33.12 5.33 C-31.36 6.06, -28.05 12.55, -26 13.52 C-23.94 14.49, -23.1 12.52, -20.8 11.16 C-18.5 9.8, -15.46 7.37, -12.2 5.37 C-8.93 3.37, -3.24 -0.11, -1.22 -0.84" stroke="#000000" stroke-width="1" fill="none"></path></g></g><mask></mask><g stroke-linecap="round"><g transform="translate(2038.8485765025948 574.4713598708922) rotate(0 12.231280380856447 0.3869593518011243)" fill-rule="evenodd"><path d="M1.04 1.07 C2.55 0.4, 4.56 -2.8, 6.77 -4.86 C8.97 -6.91, 11.35 -10.51, 14.27 -11.27 C17.2 -12.04, 22.47 -11.38, 24.31 -9.46 C26.16 -7.53, 25.62 -3.69, 25.35 0.3 C25.08 4.29, 25.11 13.07, 22.71 14.5 C20.3 15.93, 14.69 11.57, 10.93 8.88 C7.16 6.2, 1.73 0.03, 0.11 -1.61" stroke="none" stroke-width="0" fill="#326ce5" fill-rule="evenodd"></path><path d="M0.04 0.16 C1.43 -0.76, 5.43 -4.65, 8.01 -6.43 C10.58 -8.2, 12.97 -9.74, 15.51 -10.5 C18.06 -11.26, 21.75 -12.81, 23.28 -10.98 C24.81 -9.15, 24.73 -3.56, 24.7 0.5 C24.67 4.56, 25.31 12.21, 23.09 13.38 C20.87 14.54, 15.05 9.63, 11.39 7.49 C7.73 5.35, 2.93 1.77, 1.13 0.53 M-1.4 -0.8 C-0.07 -1.43, 4.68 -2.85, 7.44 -4.8 C10.19 -6.75, 12.48 -11.11, 15.13 -12.49 C17.79 -13.87, 22.02 -15.33, 23.39 -13.08 C24.76 -10.84, 23.15 -3.33, 23.35 0.98 C23.56 5.28, 26.49 11.83, 24.64 12.74 C22.78 13.65, 16.21 8.48, 12.22 6.44 C8.23 4.39, 2.86 1.75, 0.7 0.47" stroke="#000000" stroke-width="1" fill="none"></path></g></g><mask></mask><g stroke-linecap="round"><g transform="translate(2064.800760386872 571.5641976159768) rotate(56.61573969620872 12.396925801266207 0.4044344198714498)" fill-rule="evenodd"><path d="M-0.51 1.74 C0.42 0.46, 4.02 -4.86, 6.65 -6.58 C9.29 -8.3, 12.55 -7.64, 15.29 -8.59 C18.04 -9.54, 21.55 -13.94, 23.11 -12.28 C24.68 -10.61, 24.57 -3.14, 24.66 1.4 C24.75 5.95, 25.94 14.37, 23.66 15 C21.37 15.63, 14.7 7.86, 10.95 5.2 C7.2 2.55, 2.97 -0.43, 1.16 -0.94" stroke="none" stroke-width="0" fill="#326ce5" fill-rule="evenodd"></path><path d="M0.72 0.17 C2.03 -0.83, 5.64 -4.1, 7.89 -5.81 C10.15 -7.53, 11.83 -9.07, 14.26 -10.12 C16.69 -11.16, 20.67 -13.81, 22.47 -12.08 C24.26 -10.34, 24.77 -4, 25.05 0.28 C25.32 4.56, 26.3 12.43, 24.12 13.61 C21.94 14.78, 15.89 9.6, 11.97 7.35 C8.05 5.09, 2.77 1.38, 0.59 0.09 M-0.36 -0.79 C0.86 -2.14, 5.05 -5.71, 7.33 -7.58 C9.62 -9.45, 10.77 -11.45, 13.36 -12.01 C15.94 -12.56, 21.11 -13.07, 22.84 -10.89 C24.56 -8.71, 23.84 -2.89, 23.71 1.07 C23.58 5.03, 24.42 11.99, 22.06 12.86 C19.7 13.73, 13.24 8.46, 9.54 6.28 C5.85 4.1, 1.42 0.57, -0.12 -0.2" stroke="#000000" stroke-width="1" fill="none"></path></g></g><mask></mask><g stroke-linecap="round"><g transform="translate(2083.8118189543297 590.2335112416577) rotate(107.76551663161719 12.186715976532469 0.9845941177950408)" fill-rule="evenodd"><path d="M-0.51 -0.1 C0.92 -1.09, 5.37 -2.35, 8.03 -4.18 C10.68 -6.02, 12.89 -10.16, 15.44 -11.11 C17.99 -12.07, 21.85 -12.15, 23.33 -9.92 C24.8 -7.68, 24.48 -1.39, 24.27 2.29 C24.07 5.97, 24.14 11.41, 22.1 12.16 C20.06 12.91, 15.7 8.43, 12.02 6.77 C8.35 5.1, 2.13 3.05, 0.06 2.16" stroke="none" stroke-width="0" fill="#326ce5" fill-rule="evenodd"></path><path d="M0.74 0.67 C1.78 -0.31, 4.65 -3.78, 6.99 -5.71 C9.33 -7.64, 12 -10.02, 14.79 -10.91 C17.57 -11.8, 22.05 -13.01, 23.71 -11.04 C25.37 -9.07, 24.83 -3.33, 24.73 0.89 C24.63 5.12, 25.33 13.15, 23.12 14.3 C20.91 15.46, 15.5 10.25, 11.46 7.8 C7.42 5.35, 0.72 0.8, -1.11 -0.41 M-0.34 -0.02 C0.46 -1.35, 3.49 -5.8, 5.91 -7.38 C8.32 -8.96, 11.11 -8.54, 14.15 -9.51 C17.18 -10.48, 22.54 -15.05, 24.09 -13.2 C25.64 -11.35, 23.89 -2.88, 23.45 1.58 C23.01 6.03, 23.31 12.72, 21.47 13.55 C19.63 14.37, 15.83 8.92, 12.41 6.5 C8.99 4.08, 3.16 0.21, 0.94 -0.97" stroke="#000000" stroke-width="1" fill="none"></path></g></g><mask></mask><g stroke-linecap="round"><g transform="translate(2079.9589241168 616.193847774407) rotate(163.11582915884097 11.672772925045365 1.1290464693283866)" fill-rule="evenodd"><path d="M0.77 2.39 C1.76 1.55, 3.47 -3.25, 5.42 -5.15 C7.37 -7.06, 9.87 -8.18, 12.47 -9.02 C15.06 -9.86, 19.16 -11.52, 20.99 -10.19 C22.82 -8.85, 23.06 -4.96, 23.45 -1.02 C23.84 2.92, 25.47 11.5, 23.34 13.46 C21.21 15.42, 14.61 12.74, 10.67 10.74 C6.72 8.74, 1.68 3.04, -0.35 1.46" stroke="none" stroke-width="0" fill="#326ce5" fill-rule="evenodd"></path><path d="M-0.26 0.86 C0.41 -0.07, 2.59 -3.12, 4.77 -4.95 C6.96 -6.79, 10.07 -9.04, 12.85 -10.15 C15.63 -11.25, 19.51 -13.46, 21.45 -11.58 C23.39 -9.7, 24.25 -3.22, 24.47 1.13 C24.7 5.47, 25.27 13.31, 22.78 14.49 C20.28 15.66, 13.2 10.5, 9.49 8.17 C5.78 5.84, 2.14 1.74, 0.51 0.52 M1.8 0.27 C2.27 -0.51, 2.21 -1.27, 3.95 -3.33 C5.69 -5.39, 9.23 -10.34, 12.22 -12.09 C15.21 -13.84, 19.99 -16.16, 21.89 -13.85 C23.78 -11.53, 23.77 -2.76, 23.6 1.8 C23.42 6.36, 23.18 12.08, 20.84 13.49 C18.5 14.91, 13.07 12.44, 9.55 10.27 C6.04 8.1, 1.08 2.18, -0.25 0.46" stroke="#000000" stroke-width="1" fill="none"></path></g></g><mask></mask><g stroke-linecap="round"><g transform="translate(2057.080488196469 629.5756654714323) rotate(216.28421746585929 11.949422993322855 0.06727364242806289)" fill-rule="evenodd"><path d="M0.89 -0.04 C1.74 -1.11, 3.81 -2.46, 5.91 -4.05 C8 -5.63, 10.8 -7.68, 13.45 -9.55 C16.11 -11.42, 20.01 -16.7, 21.83 -15.27 C23.65 -13.83, 24.02 -6.15, 24.37 -0.94 C24.73 4.26, 26.12 14.32, 23.96 15.96 C21.81 17.59, 15.7 11.31, 11.46 8.86 C7.21 6.42, 0.34 2.4, -1.52 1.27" stroke="none" stroke-width="0" fill="#326ce5" fill-rule="evenodd"></path><path d="M0.24 0.16 C1.33 -0.84, 4.02 -3.32, 6.3 -5.17 C8.57 -7.02, 11.16 -9.62, 13.92 -10.94 C16.67 -12.27, 21.2 -14.96, 22.85 -13.12 C24.5 -11.29, 23.82 -4.33, 23.81 0.09 C23.8 4.51, 24.71 12.08, 22.79 13.38 C20.88 14.69, 16.15 10.02, 12.31 7.93 C8.47 5.84, 1.84 2.18, -0.25 0.85 M-1.1 -0.8 C-0.12 -2.22, 3.07 -4.86, 5.48 -6.89 C7.89 -8.93, 10.91 -11.57, 13.34 -12.99 C15.76 -14.41, 18.48 -17.65, 20.03 -15.4 C21.58 -13.15, 22.05 -4.06, 22.65 0.52 C23.25 5.11, 25.19 11.07, 23.62 12.13 C22.05 13.18, 17.4 8.72, 13.23 6.86 C9.05 5, 0.53 2.34, -1.41 0.96" stroke="#000000" stroke-width="1" fill="none"></path></g></g><mask></mask><g stroke-linecap="round"><g transform="translate(2031.937715807489 619.3095095634108) rotate(272.70762780618236 11.830740776982566 -1.0344083435843459)" fill-rule="evenodd"><path d="M-0.13 1.88 C0.49 1.11, 2.54 -2.06, 4.6 -4.68 C6.67 -7.3, 9.7 -12.36, 12.24 -13.84 C14.78 -15.33, 18.01 -15.98, 19.84 -13.61 C21.68 -11.24, 22.67 -3.91, 23.25 0.37 C23.82 4.65, 25.63 10.63, 23.31 12.06 C21 13.49, 13.18 10.64, 9.34 8.98 C5.51 7.31, 2.01 3.42, 0.31 2.05" stroke="none" stroke-width="0" fill="#326ce5" fill-rule="evenodd"></path><path d="M0.25 0.76 C1.06 -0.28, 2.9 -4, 5.06 -6.08 C7.23 -8.15, 10.89 -10.62, 13.26 -11.7 C15.63 -12.78, 17.81 -14.16, 19.28 -12.58 C20.75 -10.99, 21.26 -6.15, 22.07 -2.2 C22.89 1.75, 26.08 9.33, 24.17 11.12 C22.26 12.92, 14.68 10.42, 10.61 8.56 C6.54 6.7, 1.46 1.18, -0.25 -0.05 M-1.07 0.11 C-0.41 -1.3, 1.95 -5.59, 4.31 -7.91 C6.66 -10.22, 10.5 -13.17, 13.09 -13.76 C15.67 -14.35, 18.07 -13.38, 19.84 -11.43 C21.61 -9.47, 23.29 -5.66, 23.68 -2.03 C24.07 1.6, 24.29 8.74, 22.19 10.36 C20.1 11.97, 15.06 9.46, 11.12 7.66 C7.19 5.87, 0.63 0.79, -1.4 -0.42" stroke="#000000" stroke-width="1" fill="none"></path></g></g><mask></mask><g stroke-linecap="round"><g transform="translate(2025.065010067806 595.0360940964665) rotate(323.4456150347969 13.288147352222495 -0.9902951983303865)" fill-rule="evenodd"><path d="M-0.1 1.95 C0.72 0.26, 2.58 -5.72, 4.81 -8.24 C7.04 -10.76, 10.82 -12.6, 13.29 -13.18 C15.76 -13.75, 17.93 -13.73, 19.62 -11.67 C21.3 -9.61, 22.51 -4.94, 23.41 -0.81 C24.32 3.33, 26.74 11.43, 25.06 13.12 C23.37 14.81, 17.64 11.37, 13.32 9.31 C9 7.25, 1.62 2.16, -0.86 0.75" stroke="none" stroke-width="0" fill="#326ce5" fill-rule="evenodd"></path><path d="M0.36 0.56 C1.29 -0.59, 3.77 -3.98, 5.83 -6.1 C7.9 -8.21, 10.62 -10.79, 12.72 -12.14 C14.83 -13.5, 16.52 -15.98, 18.44 -14.25 C20.37 -12.51, 22.96 -6.23, 24.27 -1.74 C25.59 2.75, 28.24 11.21, 26.32 12.71 C24.41 14.2, 17.08 9.13, 12.76 7.21 C8.43 5.29, 2.43 2.38, 0.38 1.17 M-0.91 -0.2 C-0.06 -1.76, 3.28 -6.18, 5.48 -7.94 C7.68 -9.7, 10.17 -9.88, 12.27 -10.78 C14.38 -11.68, 16.31 -14.97, 18.11 -13.36 C19.91 -11.74, 21.49 -5.32, 23.07 -1.08 C24.65 3.17, 29.24 10.96, 27.6 12.11 C25.97 13.27, 17.95 7.62, 13.27 5.84 C8.6 4.06, 1.93 2.65, -0.45 1.44" stroke="#000000" stroke-width="1" fill="none"></path></g></g><mask></mask><g stroke-linecap="round" transform="translate(2063.054720806534 594.6020578208127) rotate(0 5.351254843204629 5.351254843204515)"><path d="M3.94 0.38 C5.01 0.15, 7.24 0.59, 8.24 1.06 C9.24 1.53, 9.55 2.26, 9.94 3.19 C10.34 4.11, 10.88 5.55, 10.6 6.62 C10.31 7.68, 9.25 8.95, 8.22 9.58 C7.19 10.2, 5.63 10.47, 4.42 10.39 C3.21 10.3, 1.69 9.9, 0.95 9.07 C0.22 8.24, -0.09 6.67, 0.02 5.42 C0.13 4.17, 0.85 2.45, 1.6 1.59 C2.35 0.72, 3.9 0.41, 4.5 0.22 C5.1 0.02, 5.12 0.39, 5.2 0.42 M4.03 0.66 C5.04 0.32, 6.31 0.55, 7.35 0.95 C8.38 1.36, 9.58 2.02, 10.23 3.1 C10.88 4.18, 11.52 6.32, 11.23 7.42 C10.94 8.51, 9.66 9.08, 8.48 9.67 C7.29 10.26, 5.41 10.99, 4.13 10.95 C2.85 10.91, 1.63 10.4, 0.82 9.43 C0.02 8.47, -0.66 6.26, -0.7 5.15 C-0.75 4.03, -0.22 3.54, 0.58 2.74 C1.37 1.94, 3.49 0.69, 4.06 0.33 C4.63 -0.03, 4.08 0.6, 4.01 0.57" stroke="none" stroke-width="0" fill="#326ce5"></path><path d="M5.84 0.25 C6.96 0.38, 8.62 0.82, 9.49 1.6 C10.36 2.39, 11.03 3.79, 11.05 4.98 C11.07 6.17, 10.27 7.77, 9.6 8.74 C8.93 9.7, 8.15 10.52, 7.03 10.75 C5.92 10.97, 3.94 10.64, 2.91 10.09 C1.87 9.53, 1.19 8.46, 0.81 7.41 C0.43 6.36, 0.42 4.85, 0.64 3.8 C0.85 2.75, 1.19 1.71, 2.12 1.1 C3.04 0.48, 5.34 0.26, 6.17 0.11 C7.01 -0.04, 7.06 0.18, 7.13 0.21 M5.78 0.28 C6.77 0.29, 7.94 1.29, 8.81 2.01 C9.69 2.72, 10.93 3.43, 11.03 4.55 C11.12 5.67, 10.19 7.8, 9.37 8.72 C8.55 9.64, 7.25 9.81, 6.09 10.05 C4.92 10.3, 3.29 10.71, 2.38 10.19 C1.48 9.66, 0.96 8.08, 0.67 6.9 C0.38 5.71, 0.22 4.18, 0.65 3.06 C1.07 1.94, 2.35 0.58, 3.21 0.19 C4.06 -0.21, 5.4 0.75, 5.77 0.68 C6.14 0.61, 5.52 -0.25, 5.43 -0.25" stroke="#000000" stroke-width="1" fill="none"></path></g></svg>